<svg width="1187" height="909" viewBox="0 0 1187 909" fill="none" xmlns="http://www.w3.org/2000/svg">
<rect width="175.824" height="278.972" rx="87.912" transform="matrix(0.999203 -0.0399235 0.0305064 0.999535 1002.81 346.811)" fill="url(#paint0_linear_25_23)"/>
<path d="M95.0575 507.474C95.0575 280.388 286.846 100.497 513.467 115.02L759.88 130.812C963.566 143.866 1122.09 312.876 1122.09 516.98V516.98C1122.09 732.658 945.765 906.709 730.105 903.907L483.207 900.699C268.027 897.903 95.0575 722.672 95.0575 507.474V507.474Z" fill="url(#paint1_linear_25_23)"/>
<path d="M434.321 153.347C434.321 68.6556 502.977 0 587.668 0H609.175C693.866 0 762.522 68.6556 762.522 153.347V153.347C762.522 238.037 693.866 306.693 609.175 306.693H587.668C502.977 306.693 434.321 238.037 434.321 153.347V153.347Z" fill="url(#paint2_linear_25_23)"/>
<rect x="177.324" y="163.144" width="917.923" height="699.354" rx="322" fill="url(#paint3_linear_25_23)"/>
<rect x="0.819824" y="314.503" width="193.11" height="337.368" rx="96.5551" fill="url(#paint4_linear_25_23)"/>
<path d="M239.078 575.997C207.618 386.707 357.563 216.111 549.326 223.023L807.138 232.316C950.224 237.474 1063.56 354.965 1063.56 498.143V559.673C1063.56 708.79 942.673 829.673 793.556 829.673H538.396C390.019 829.673 263.405 722.366 239.078 575.997V575.997Z" fill="#181C23"/>
<rect x="799.808" y="340" width="49.8177" height="405" rx="23" fill="url(#paint5_linear_25_23)"/>
<rect x="480.8" y="396" width="49.8177" height="296" rx="23" fill="url(#paint6_linear_25_23)"/>
<rect x="731.637" y="425" width="186.161" height="235" rx="23" fill="url(#paint7_linear_25_23)"/>
<rect x="412.861" y="485.309" width="185.916" height="117.305" rx="23" fill="url(#paint8_linear_25_23)"/>
<defs>
<linearGradient id="paint0_linear_25_23" x1="88.345" y1="5.92598e-07" x2="132.382" y2="278.308" gradientUnits="userSpaceOnUse">
<stop stop-color="#49244A"/>
<stop offset="1" stop-color="#2E142F"/>
</linearGradient>
<linearGradient id="paint1_linear_25_23" x1="592.768" y1="49.1676" x2="592.768" y2="909" gradientUnits="userSpaceOnUse">
<stop stop-color="#00FFE7"/>
<stop offset="1" stop-color="#007469"/>
</linearGradient>
<linearGradient id="paint2_linear_25_23" x1="631.407" y1="-3.3961e-06" x2="690.968" y2="253.536" gradientUnits="userSpaceOnUse">
<stop stop-color="#90DAD3"/>
<stop offset="0.0817308" stop-color="#A8F0E9"/>
<stop offset="0.586538" stop-color="#268179"/>
</linearGradient>
<linearGradient id="paint3_linear_25_23" x1="531.292" y1="217.628" x2="647.824" y2="839.264" gradientUnits="userSpaceOnUse">
<stop stop-color="#2FA89C"/>
<stop offset="0.221154" stop-color="#1C4C47"/>
</linearGradient>
<linearGradient id="paint4_linear_25_23" x1="69.664" y1="314.503" x2="178.397" y2="533.105" gradientUnits="userSpaceOnUse">
<stop stop-color="#7B3C96"/>
<stop offset="1" stop-color="#281330"/>
</linearGradient>
<linearGradient id="paint5_linear_25_23" x1="824.717" y1="340" x2="824.717" y2="745" gradientUnits="userSpaceOnUse">
<stop stop-color="#09FF00"/>
<stop offset="1" stop-color="#059900"/>
</linearGradient>
<linearGradient id="paint6_linear_25_23" x1="505.709" y1="396" x2="505.709" y2="692" gradientUnits="userSpaceOnUse">
<stop stop-color="#F03636"/>
<stop offset="0.497745" stop-color="#BD2A2A"/>
<stop offset="1" stop-color="#8A1F1F"/>
</linearGradient>
<linearGradient id="paint7_linear_25_23" x1="824.717" y1="425" x2="824.717" y2="660" gradientUnits="userSpaceOnUse">
<stop stop-color="#09FF00"/>
<stop offset="1" stop-color="#059900"/>
</linearGradient>
<linearGradient id="paint8_linear_25_23" x1="505.819" y1="485.309" x2="505.819" y2="602.614" gradientUnits="userSpaceOnUse">
<stop stop-color="#F03636"/>
<stop offset="1" stop-color="#8A1F1F"/>
</linearGradient>
</defs>
</svg>
