<svg width="1383" height="909" viewBox="0 0 1383 909" fill="none" xmlns="http://www.w3.org/2000/svg">
<rect x="1171.44" y="346.811" width="201.135" height="279.012" rx="100.567" transform="rotate(-2 1171.44 346.811)" fill="url(#paint0_linear_25_23)"/>
<path d="M132.824 505.519C132.824 278.918 323.238 98.8714 549.484 111.544L943.716 133.625C1148.08 145.072 1307.93 314.126 1307.93 518.808V518.808C1307.93 733.584 1132.52 907.008 917.761 904.569L522.936 900.086C306.77 897.631 132.824 721.698 132.824 505.519V505.519Z" fill="url(#paint1_linear_25_23)"/>
<path d="M521 153.347C521 68.6556 589.656 0 674.347 0H743.171C827.862 0 896.518 68.6556 896.518 153.347V153.347C896.518 238.037 827.862 306.693 743.172 306.693H674.347C589.656 306.693 521 238.037 521 153.347V153.347Z" fill="url(#paint2_linear_25_23)"/>
<rect x="226.951" y="163.144" width="1050.26" height="699.354" rx="322" fill="url(#paint3_linear_25_23)"/>
<rect x="0.180176" y="318.462" width="220.951" height="337.368" rx="110.476" transform="rotate(-2 0.180176 318.462)" fill="url(#paint4_linear_25_23)"/>
<path d="M298.821 582.371C262.457 391.147 412.605 215.463 607.159 221.592L983.329 233.443C1126.9 237.966 1240.95 355.664 1240.95 499.311V559.673C1240.95 708.79 1120.07 829.673 970.953 829.673H597.582C451.532 829.673 326.105 725.85 298.821 582.371V582.371Z" fill="#181C23"/>
<rect x="1006.99" y="297.437" width="57.2292" height="493.049" rx="23" fill="url(#paint5_linear_25_23)"/>
<rect x="574.191" y="343.26" width="57.2292" height="401.404" rx="23" fill="url(#paint6_linear_25_23)"/>
<rect x="929.242" y="400.996" width="212.72" height="285.932" rx="23" fill="url(#paint7_linear_25_23)"/>
<rect x="496.446" y="485.309" width="212.72" height="117.305" rx="23" fill="url(#paint8_linear_25_23)"/>
<defs>
<linearGradient id="paint0_linear_25_23" x1="1272.51" y1="346.811" x2="1311.24" y2="626.771" gradientUnits="userSpaceOnUse">
<stop stop-color="#49244A"/>
<stop offset="1" stop-color="#2E142F"/>
</linearGradient>
<linearGradient id="paint1_linear_25_23" x1="702.29" y1="49.1676" x2="702.29" y2="909" gradientUnits="userSpaceOnUse">
<stop stop-color="#00FFE7"/>
<stop offset="1" stop-color="#007469"/>
</linearGradient>
<linearGradient id="paint2_linear_25_23" x1="746.5" y1="-3.3961e-06" x2="799.207" y2="256.706" gradientUnits="userSpaceOnUse">
<stop stop-color="#90DAD3"/>
<stop offset="0.0817308" stop-color="#A8F0E9"/>
<stop offset="0.586538" stop-color="#268179"/>
</linearGradient>
<linearGradient id="paint3_linear_25_23" x1="631.951" y1="217.628" x2="734.623" y2="844.288" gradientUnits="userSpaceOnUse">
<stop stop-color="#2FA89C"/>
<stop offset="0.221154" stop-color="#1C4C47"/>
</linearGradient>
<linearGradient id="paint4_linear_25_23" x1="78.9498" y1="318.462" x2="178.651" y2="547.805" gradientUnits="userSpaceOnUse">
<stop stop-color="#7B3C96"/>
<stop offset="1" stop-color="#281330"/>
</linearGradient>
<linearGradient id="paint5_linear_25_23" x1="1035.6" y1="297.437" x2="1035.6" y2="790.486" gradientUnits="userSpaceOnUse">
<stop stop-color="#09FF00"/>
<stop offset="1" stop-color="#059900"/>
</linearGradient>
<linearGradient id="paint6_linear_25_23" x1="602.806" y1="343.26" x2="602.806" y2="744.664" gradientUnits="userSpaceOnUse">
<stop stop-color="#F03636"/>
<stop offset="0.497745" stop-color="#BD2A2A"/>
<stop offset="1" stop-color="#8A1F1F"/>
</linearGradient>
<linearGradient id="paint7_linear_25_23" x1="1035.6" y1="400.996" x2="1035.6" y2="686.927" gradientUnits="userSpaceOnUse">
<stop stop-color="#09FF00"/>
<stop offset="1" stop-color="#059900"/>
</linearGradient>
<linearGradient id="paint8_linear_25_23" x1="602.806" y1="485.309" x2="602.806" y2="602.614" gradientUnits="userSpaceOnUse">
<stop stop-color="#F03636"/>
<stop offset="1" stop-color="#8A1F1F"/>
</linearGradient>
</defs>
</svg>
