<svg width="1403" height="961" viewBox="0 0 1403 961" fill="none" xmlns="http://www.w3.org/2000/svg">
<rect x="1119" y="396.574" width="284" height="224.11" rx="112.055" fill="#00C3B1"/>
<rect x="151" y="114.361" width="1170" height="846.639" rx="401" fill="#00FFE7"/>
<rect y="391.963" width="283" height="287.747" rx="141.5" fill="#00C3B1"/>
<rect x="573" width="349" height="287.747" rx="143.873" fill="#00C3B1"/>
<path d="M311 509.152C311 325.242 460.089 176.153 644 176.153H966C1112.91 176.153 1232 295.245 1232 442.153V625.519C1232 774.636 1111.12 895.519 962 895.519H644C460.089 895.519 311 746.43 311 562.519V509.152Z" fill="#181C23"/>
<rect x="922" y="391.963" width="197" height="287.747" rx="23" fill="#09FF00"/>
<rect x="501" y="476.811" width="197" height="118.05" rx="23" fill="#F03636"/>
<rect x="994" y="287.747" width="53" height="496.178" rx="23" fill="#09FF00"/>
<rect x="573" y="333.86" width="53" height="403.952" rx="23" fill="#F03636"/>
</svg>
